# xmcd CD database file
#
# Track frame offsets:
#	150
#	27957
#	47886
#	61909
#	78670
#	99986
#	122135
#	146622
#	170256
#	188475
#	203893
#	223699
#	240335
#	258648
#	281512
#	294222
#
# Disc length: 4410 seconds
#
# Revision: 0
# Processed by: cddbd v1.5.2PL0 Copyright (c) Steve Scherf et al.
# Submitted via: CDex 1.70beta2
#
DISCID=e4113810
DTITLE=Frits' Jazz Mix - Jazz Rustig
DYEAR=1900
DGENRE=Jazz
TTITLE0=Paul Desmond - Take Ten
TTITLE1=Barney Wilen - Auburn Privé
TTITLE2=Barney Wilen - What Are You Doin' For The Rest Of Your Life
TTITLE3=Louis Sclavis - Duguesclin
TTITLE4=George Duke - Guilty
TTITLE5=George Duke - Say Hello
TTITLE6=Toots and Sinuca - I Just Called To Say I love You
TTITLE7=Toots and Sinuca - Vai Passar
TTITLE8=Ella Fitzgerald - Oh Lady Be Good
TTITLE9=Ella Fitzgerald - Come Rain Or Come Shine
TTITLE10=Quincy Jones - Moody's Mood For Love (James Moody)
TTITLE11=Grover Washington Jr. - Love It In A Proper Place (Bill Cosby)
TTITLE12=Grover Washington Jr. - Clair (Bill Cosby)
TTITLE13=Ann Burton - Can't Face The Music
TTITLE14=Ann Burton - Am I BLue
TTITLE15=Toots Thielemans and Svend Asmussen - Blues On Blues (Toots on Guitar)
EXTD=
EXTT0=
EXTT1=
EXTT2=
EXTT3=
EXTT4=
EXTT5=
EXTT6=
EXTT7=
EXTT8=
EXTT9=
EXTT10=
EXTT11=
EXTT12=
EXTT13=
EXTT14=
EXTT15=
PLAYORDER=
